# xmcd
#
# Track frame offsets: 
#        150
#        15847
#        32722
#        52130
#        65892
#        81717
#        100917
#        102633
#        120754
#        136579
#        154663
#        171275
#
# Disc length: 2564 seconds
#
# Revision: 0
# Processed by: cddbd v1.5.2PL0 Copyright (c) Steve Scherf et al.
# Submitted via: ExactAudioCopy v1.0b3
#
DISCID=9c0a020c
DTITLE=Tom Gillam - Rustic Beauty
DYEAR=2012
DGENRE=Country
TTITLE0=Till The Morning
TTITLE1=The Long Way Around
TTITLE2=Crazy Southern Women
TTITLE3=A Song For Caroline
TTITLE4=A Good Feelin' To Know
TTITLE5=Hand Me Down Blues
TTITLE6=(Special Announcement)
TTITLE7=So In Tune
TTITLE8=Echo Town
TTITLE9=(I Guess) You Got Yours, Too
TTITLE10=Change Partners
TTITLE11=All Right
EXTD=
EXTT0=
EXTT1=
EXTT2=
EXTT3=
EXTT4=
EXTT5=
EXTT6=
EXTT7=
EXTT8=
EXTT9=
EXTT10=
EXTT11=
PLAYORDER=
